<?xml version="1.0" standalone="no"?>
<!DOCTYPE svg PUBLIC "-//W3C//DTD SVG 20010904//EN"
 "http://www.w3.org/TR/2001/REC-SVG-20010904/DTD/svg10.dtd">
<svg version="1.0" xmlns="http://www.w3.org/2000/svg"
 width="900.000000pt" height="1056.000000pt" viewBox="0 0 900.000000 1056.000000"
 preserveAspectRatio="xMidYMid meet">
<metadata>
Created by potrace 1.15, written by Peter Selinger 2001-2017
</metadata>
<g transform="translate(0.000000,1056.000000) scale(0.100000,-0.100000)"
fill="#e0dbcf" stroke="none">
<path d="M4275 10424 c-617 -38 -1164 -180 -1690 -439 -910 -448 -1649 -1234
-2044 -2171 -193 -460 -320 -1019 -346 -1529 -7 -135 8 -427 30 -584 109 -772
335 -1382 726 -1956 179 -263 280 -377 773 -874 1248 -1257 2742 -2751 2751
-2751 5 0 203 193 440 430 l429 429 -1566 1568 c-861 862 -1586 1591 -1610
1619 -146 167 -290 378 -392 575 -244 467 -360 974 -343 1499 25 750 322 1450
847 1994 484 501 1114 811 1825 898 157 19 547 16 705 -5 613 -82 1148 -322
1612 -724 782 -678 1159 -1739 983 -2766 -92 -541 -325 -1041 -679 -1452 -33
-38 -354 -365 -713 -725 l-653 -655 453 -452 452 -453 659 658 c363 361 708
712 767 780 572 652 911 1407 1031 2292 19 142 22 211 23 495 0 439 -28 688
-120 1060 -217 877 -692 1644 -1385 2231 -661 560 -1451 896 -2330 989 -142
15 -517 26 -635 19z"/>
<path d="M4255 8060 c-464 -53 -888 -269 -1192 -609 -622 -697 -646 -1709 -56
-2438 46 -57 262 -271 561 -555 268 -255 589 -561 713 -680 125 -120 229 -218
232 -218 3 0 221 226 484 502 263 276 554 581 646 677 274 287 394 447 498
666 311 658 209 1436 -263 2000 -275 329 -669 556 -1101 635 -129 24 -396 34
-522 20z"/>
</g>
</svg>
